<svg width="64" height="64" viewBox="0 0 64 64" fill="none" xmlns="http://www.w3.org/2000/svg">
<rect width="64" height="64" rx="16" fill="#594CE9"/>
<path d="M38 43C38.7969 43 39.5 42.3438 39.5 41.5V29.5H34.25C32.9844 29.5 32 28.5156 32 27.25V22H26C25.1562 22 24.5 22.7031 24.5 23.5V41.5C24.5 42.3438 25.1562 43 26 43H38ZM34.25 28H39.4531C39.4062 27.9062 39.3594 27.7656 39.2656 27.6719L33.8281 22.2344C33.7344 22.1406 33.5938 22.0938 33.5 22.0469V27.25C33.5 27.6719 33.8281 28 34.25 28ZM26 20.5H33.3125C33.875 20.5 34.4844 20.7812 34.9062 21.2031L40.2969 26.5938C40.7188 27.0156 41 27.625 41 28.1875V41.5C41 43.1875 39.6406 44.5 38 44.5H26C24.3125 44.5 23 43.1875 23 41.5V23.5C23 21.8594 24.3125 20.5 26 20.5ZM28.25 32.5H35.75C36.125 32.5 36.5 32.875 36.5 33.25C36.5 33.6719 36.125 34 35.75 34H28.25C27.8281 34 27.5 33.6719 27.5 33.25C27.5 32.875 27.8281 32.5 28.25 32.5ZM28.25 35.5H35.75C36.125 35.5 36.5 35.875 36.5 36.25C36.5 36.6719 36.125 37 35.75 37H28.25C27.8281 37 27.5 36.6719 27.5 36.25C27.5 35.875 27.8281 35.5 28.25 35.5ZM28.25 38.5H35.75C36.125 38.5 36.5 38.875 36.5 39.25C36.5 39.6719 36.125 40 35.75 40H28.25C27.8281 40 27.5 39.6719 27.5 39.25C27.5 38.875 27.8281 38.5 28.25 38.5Z" fill="white"/>
</svg>
