<svg width="64" height="64" viewBox="0 0 64 64" fill="none" xmlns="http://www.w3.org/2000/svg">
<rect width="64" height="64" rx="16" fill="#594CE9"/>
<path d="M32.2344 22.0469C32.0469 22 31.9062 22 31.7188 22.0469L26.8438 23.7812C26.75 23.8281 26.6562 23.9219 26.5625 23.9688L32 26.0312L37.3906 23.9688C37.2969 23.9219 37.2031 23.8281 37.1094 23.7812L32.2344 22.0469ZM26.375 30.4844L31.25 32.2188V27.3906L26.375 25.5156V30.4844ZM32.75 32.2188L37.5781 30.4844H37.625V25.5156L32.75 27.3906V32.2188ZM39.125 24.4844V30.4844L44 32.2188C44.8906 32.5469 45.5 33.3906 45.5 34.375V40.2812C45.5 41.1719 44.9375 42.0156 44.0938 42.3438L39.2188 44.3594C38.6562 44.5938 38.0469 44.5938 37.4844 44.3594L32 42.1094L26.4688 44.3594C25.9062 44.5938 25.2969 44.5938 24.7344 44.3594L19.8594 42.3438C19.0156 42.0156 18.5 41.1719 18.5 40.2812V34.375C18.5 33.3906 19.0625 32.5469 19.9531 32.2188L24.8281 30.4844H24.875V24.4844C24.875 23.5469 25.4375 22.7031 26.3281 22.375L31.2031 20.6406C31.7188 20.4531 32.2344 20.4531 32.75 20.6406L37.625 22.375C38.5156 22.7031 39.125 23.5469 39.125 24.4844ZM31.25 34.9844L26 36.8594V42.9531L31.25 40.7969V34.9844ZM20.4219 40.9844L24.5 42.625V36.8594L20 34.9844V40.2812C20 40.5625 20.1406 40.8438 20.4219 40.9844ZM38 42.9531V36.8594L32.75 34.9844V40.7969L38 42.9531ZM39.5 42.625L43.5312 40.9844C43.8125 40.8438 44 40.5625 44 40.2812V34.9844L39.5 36.8594V42.625ZM25.8594 31.8906C25.6719 31.8438 25.5312 31.8438 25.3438 31.8906L20.5625 33.625L25.25 35.5469L30.5938 33.625L25.8594 31.8906ZM38.0938 31.8906L33.3594 33.625L38.7031 35.5469L43.3906 33.625L38.6094 31.8906C38.4219 31.8438 38.2812 31.8438 38.0938 31.8906Z" fill="white"/>
</svg>
