<svg width="64" height="64" viewBox="0 0 64 64" fill="none" xmlns="http://www.w3.org/2000/svg">
<rect width="64" height="64" rx="16" fill="#594CE9"/>
<path d="M23.75 22H41.75C42.125 22 42.5 22.375 42.5 22.75C42.5 23.1719 42.125 23.5 41.75 23.5H23.75C22.4844 23.5 21.5 24.5312 21.5 25.75V39.25C21.5 40.5156 22.4844 41.5 23.75 41.5H40.25C41.4688 41.5 42.5 40.5156 42.5 39.25V28.75C42.5 27.5312 41.4688 26.5 40.25 26.5H25.25C24.8281 26.5 24.5 26.1719 24.5 25.75C24.5 25.375 24.8281 25 25.25 25H40.25C42.3125 25 44 26.6875 44 28.75V39.25C44 41.3594 42.3125 43 40.25 43H23.75C21.6406 43 20 41.3594 20 39.25V25.75C20 23.6875 21.6406 22 23.75 22ZM38 35.125C37.3438 35.125 36.875 34.6562 36.875 34C36.875 33.3906 37.3438 32.875 38 32.875C38.6094 32.875 39.125 33.3906 39.125 34C39.125 34.6562 38.6094 35.125 38 35.125Z" fill="white"/>
</svg>
