<svg width="64" height="64" viewBox="0 0 64 64" fill="none" xmlns="http://www.w3.org/2000/svg">
<rect width="64" height="64" rx="16" fill="#594CE9"/>
<path d="M33.125 21.625V23.9688C34.3906 24.1094 35.5625 24.3438 36.4531 24.5312C37.0625 24.6719 37.4375 25.2812 37.2969 25.8906C37.1562 26.5 36.5469 26.875 35.9375 26.7344C34.4844 26.4062 32.375 25.9844 30.5938 26.1719C29.7031 26.2188 29 26.4062 28.4844 26.7344C28.0156 27.0625 27.6875 27.4844 27.5469 28.1875C27.4062 28.7031 27.5 29.0781 27.6406 29.3125C27.7344 29.5938 28.0156 29.8281 28.4375 30.1094C29.3281 30.6719 30.6875 31 32.2344 31.4219L32.375 31.4688C33.8281 31.8438 35.4688 32.2656 36.7344 33.0156C37.3906 33.3906 37.9531 33.9531 38.3281 34.7031C38.75 35.4531 38.7969 36.3438 38.6562 37.2812C38.3281 38.9688 37.1094 40.0469 35.6094 40.6094C34.8594 40.8906 34.0156 41.0781 33.125 41.125V43.375C33.125 44.0312 32.6094 44.5 32 44.5C31.3438 44.5 30.875 44.0312 30.875 43.375V41.0781C30.6875 41.0312 30.5469 41.0312 30.4062 40.9844C29.2344 40.8438 27.1719 40.375 25.9062 39.8125C25.3438 39.5312 25.0625 38.875 25.3438 38.3125C25.5781 37.75 26.2344 37.5156 26.7969 37.75C27.8281 38.1719 29.6562 38.6406 30.6875 38.7812C32.375 39.0156 33.7812 38.875 34.8125 38.5C35.7969 38.125 36.3125 37.5625 36.4062 36.8594C36.5469 36.3438 36.4531 35.9688 36.3125 35.7344C36.2188 35.4531 35.9375 35.1719 35.5156 34.9375C34.625 34.375 33.3125 34 31.7188 33.625L31.5781 33.5781C30.125 33.2031 28.4844 32.7812 27.2188 32.0312C26.6094 31.6094 26 31.0938 25.625 30.3438C25.25 29.5469 25.1562 28.7031 25.3438 27.7656C25.5781 26.4062 26.2812 25.4688 27.2656 24.8594C28.2031 24.25 29.3281 24.0156 30.4062 23.9219C30.5469 23.875 30.6875 23.875 30.875 23.875V21.625C30.875 21.0156 31.3438 20.5 32 20.5C32.6094 20.5 33.125 21.0156 33.125 21.625Z" fill="white"/>
</svg>
