<svg width="64" height="64" viewBox="0 0 64 64" fill="none" xmlns="http://www.w3.org/2000/svg">
<rect width="64" height="64" rx="16" fill="#594CE9"/>
<path d="M42.5 32.5C42.5 28.75 40.4844 25.3281 37.25 23.4531C33.9688 21.5312 29.9844 21.5312 26.75 23.4531C23.4688 25.3281 21.5 28.75 21.5 32.5C21.5 36.2969 23.4688 39.7188 26.75 41.5938C29.9844 43.5156 33.9688 43.5156 37.25 41.5938C40.4844 39.7188 42.5 36.2969 42.5 32.5ZM20 32.5C20 28.2344 22.25 24.2969 26 22.1406C29.7031 19.9844 34.25 19.9844 38 22.1406C41.7031 24.2969 44 28.2344 44 32.5C44 36.8125 41.7031 40.75 38 42.9062C34.25 45.0625 29.7031 45.0625 26 42.9062C22.25 40.75 20 36.8125 20 32.5ZM32.75 25.75V32.3125L35.6094 36.625C35.8438 36.9531 35.75 37.4219 35.375 37.6562C35.0469 37.8906 34.5781 37.7969 34.3438 37.4219L31.3438 32.9219C31.25 32.8281 31.25 32.6875 31.25 32.5469V25.75C31.25 25.375 31.5781 25 32 25C32.375 25 32.75 25.375 32.75 25.75Z" fill="white"/>
</svg>
