<svg width="22" height="14" viewBox="0 0 22 14" fill="none" xmlns="http://www.w3.org/2000/svg">
<path d="M10.1416 13.1115L0.35146 3.3212C0.124844 3.09476 -9.85645e-08 2.79249 -8.4476e-08 2.47018C-7.03876e-08 2.14788 0.124844 1.8456 0.351461 1.61917L1.07227 0.89818C1.54196 0.42903 2.30533 0.42903 2.7743 0.89818L10.9954 9.11932L19.2257 0.889059C19.4523 0.662622 19.7544 0.537599 20.0765 0.537599C20.399 0.537599 20.7011 0.662622 20.9279 0.889059L21.6485 1.61005C21.8752 1.83666 22 2.13876 22 2.46106C22 2.78337 21.8752 3.08564 21.6485 3.31208L11.8495 13.1115C11.6222 13.3385 11.3186 13.4631 10.996 13.4624C10.6721 13.4631 10.3687 13.3385 10.1416 13.1115Z" fill="white"/>
</svg>
