<svg width="22" height="14" viewBox="0 0 22 14" fill="none" xmlns="http://www.w3.org/2000/svg">
<path d="M11.8584 0.888522L21.6485 10.6788C21.8752 10.9052 22 11.2075 22 11.5298C22 11.8521 21.8752 12.1544 21.6485 12.3808L20.9277 13.1018C20.458 13.571 19.6947 13.571 19.2257 13.1018L11.0046 4.88068L2.7743 13.1109C2.54769 13.3374 2.24559 13.4624 1.92346 13.4624C1.60098 13.4624 1.29888 13.3374 1.07209 13.1109L0.351458 12.39C0.124842 12.1633 -1.88826e-06 11.8612 -1.88441e-06 11.5389C-1.88057e-06 11.2166 0.124842 10.9144 0.351458 10.6879L10.1505 0.888522C10.3778 0.661548 10.6814 0.536883 11.004 0.537598C11.3279 0.536883 11.6313 0.661548 11.8584 0.888522Z" fill="white"/>
</svg>
