<svg width="24" height="25" viewBox="0 0 24 25" fill="none" xmlns="http://www.w3.org/2000/svg">
<g clip-path="url(#clip0_1186_199)">
<path d="M12 0.5C5.3832 0.5 0 5.8832 0 12.5C0 19.1168 5.3832 24.5 12 24.5C18.6168 24.5 24 19.1168 24 12.5C24 5.8832 18.6168 0.5 12 0.5ZM12 22.3182C6.58618 22.3182 2.18182 17.9137 2.18182 12.5C2.18182 7.08625 6.58618 2.68182 12 2.68182C17.4138 2.68182 21.8182 7.08625 21.8182 12.5C21.8182 17.9137 17.4137 22.3182 12 22.3182Z" fill="#FF7900"/>
<path d="M16.4995 8.25736L10.3284 14.4285L7.49999 11.6C7.07402 11.1741 6.38326 11.174 5.95722 11.6C5.53119 12.026 5.53119 12.7167 5.95722 13.1427L9.55693 16.7426C9.76151 16.9472 10.039 17.0622 10.3283 17.0622H10.3284C10.6177 17.0622 10.8951 16.9472 11.0997 16.7427L18.0423 9.80019C18.4684 9.37416 18.4684 8.68347 18.0423 8.25743C17.6163 7.83139 16.9256 7.83132 16.4995 8.25736Z" fill="#FF7900"/>
</g>
<defs>
<clipPath id="clip0_1186_199">
<rect width="24" height="24" fill="white" transform="translate(0 0.5)"/>
</clipPath>
</defs>
</svg>
