<svg width="24" height="24" viewBox="0 0 24 24" fill="none" xmlns="http://www.w3.org/2000/svg">
<path d="M20.8943 5.49848V22.4305C20.8943 22.9633 20.4575 23.4001 19.9247 23.4001H6.25907C4.51187 23.4001 3.10547 22.2361 3.10547 20.7313V3.7537C3.10547 2.00649 4.75427 0.600098 6.84227 0.600098H16.4783C17.0135 0.600098 17.4503 1.03691 17.4503 1.56971V18.9865V19.0345C17.4503 19.5673 17.0135 20.0041 16.4783 20.0041H6.25907C5.53187 20.0041 4.99667 20.3929 4.99667 20.7817C4.99667 21.1201 5.53187 21.5569 6.25907 21.5569H18.9527V5.5489C18.9527 5.0137 19.3895 4.57691 19.9247 4.57691C20.4575 4.57691 20.8463 4.96568 20.8943 5.49848Z" fill="white"/>
</svg>
