<svg width="24" height="24" viewBox="0 0 24 24" fill="none" xmlns="http://www.w3.org/2000/svg">
<path d="M20.4796 4.67278C17.7463 4.44609 15.0196 3.3661 12.3929 1.45944C12.1529 1.2861 11.8263 1.29277 11.5929 1.47275C9.27295 3.23943 6.54626 4.31943 3.49292 4.67278C3.15959 4.71278 2.90625 4.99277 2.90625 5.33277V9.60609C2.90625 15.3861 6.3796 20.4928 11.7529 22.6194C11.8329 22.6528 11.9129 22.6661 11.9996 22.6661C12.0796 22.6661 12.1663 22.6528 12.2463 22.6194C17.6196 20.4928 21.0929 15.3861 21.0929 9.60609V5.33277C21.0929 4.98609 20.8263 4.69943 20.4796 4.67278ZM13.2729 12.4794L13.8063 14.4327C13.9596 14.9727 13.5529 15.5061 12.9862 15.5061H11.0063C10.4462 15.5061 10.0396 14.9727 10.1863 14.4327L10.7263 12.4794C10.7796 12.2861 10.7196 12.0794 10.5796 11.9327C10.1129 11.4794 9.87292 10.7861 10.0329 10.0527C10.1929 9.31943 10.7863 8.71278 11.5262 8.54611C12.8396 8.2461 14.0129 9.2461 14.0129 10.5061C14.0129 11.0661 13.7863 11.5728 13.4196 11.9327C13.2729 12.0794 13.2196 12.2861 13.2729 12.4794Z" fill="white"/>
</svg>
