<svg width="24" height="24" viewBox="0 0 24 24" fill="none" xmlns="http://www.w3.org/2000/svg">
<path d="M19.6742 19.6744L4.32455 4.32522L4.32127 4.32147C4.23817 4.23904 4.13965 4.17379 4.03133 4.12945C3.92301 4.0851 3.80701 4.06252 3.68997 4.063C3.57292 4.06347 3.45712 4.087 3.34917 4.13224C3.24121 4.17747 3.14323 4.24352 3.0608 4.32663C2.97838 4.40973 2.91313 4.50825 2.86878 4.61657C2.82443 4.72489 2.80185 4.84088 2.80233 4.95793C2.8033 5.19431 2.89813 5.42063 3.06596 5.58709L4.40986 6.931C2.78007 8.04721 1.37722 9.46295 0.275959 11.1029C0.0961223 11.3684 0 11.6817 0 12.0024C0 12.3231 0.0961223 12.6364 0.275959 12.9019C3.08705 17.0626 7.54346 19.5001 11.9999 19.4696C13.4434 19.4748 14.8772 19.2345 16.2402 18.759L18.4156 20.9344C18.5833 21.0966 18.8078 21.1866 19.0411 21.185C19.2743 21.1834 19.4976 21.0904 19.663 20.9259C19.8284 20.7615 19.9227 20.5387 19.9256 20.3055C19.9284 20.0722 19.8397 19.8472 19.6785 19.6787L19.6742 19.6744ZM11.9999 17.0504C11.1556 17.0501 10.3248 16.8382 9.58347 16.434C8.84216 16.0299 8.21395 15.4464 7.75626 14.7369C7.29857 14.0274 7.02599 13.2145 6.96343 12.3725C6.90087 11.5305 7.05033 10.6863 7.39815 9.91694L8.80205 11.3208C8.68897 11.8537 8.71082 12.4064 8.86562 12.9287C9.02042 13.451 9.30326 13.9263 9.68845 14.3115C10.0736 14.6967 10.549 14.9795 11.0712 15.1343C11.5935 15.2891 12.1462 15.311 12.6791 15.1979L14.083 16.6018C13.4287 16.8985 12.7183 17.0514 11.9999 17.0504Z" fill="white"/>
<path d="M23.724 11.1006C20.9129 6.93759 16.4565 4.50009 12.0001 4.53056C10.5566 4.52533 9.1227 4.76563 7.75977 5.24118L9.91602 7.39743C10.8517 6.974 11.8942 6.84578 12.9046 7.02987C13.9149 7.21395 14.8452 7.70159 15.5714 8.4278C16.2976 9.15401 16.7853 10.0843 16.9694 11.0947C17.1534 12.1051 17.0252 13.1475 16.6018 14.0832L19.5896 17.071C21.2197 15.955 22.6227 14.5392 23.724 12.8991C23.9037 12.6337 23.9998 12.3204 23.9998 11.9999C23.9998 11.6793 23.9037 11.366 23.724 11.1006Z" fill="white"/>
<path d="M11.9995 8.73096C11.7713 8.73099 11.5436 8.75487 11.3203 8.80221L15.1973 12.6788C15.2984 12.2025 15.2919 11.7096 15.1781 11.2362C15.0643 10.7628 14.8462 10.3207 14.5398 9.94237C14.2333 9.56401 13.8462 9.2589 13.4067 9.04931C12.9672 8.83973 12.4864 8.73096 11.9995 8.73096Z" fill="white"/>
</svg>
