<svg width="24" height="24" viewBox="0 0 24 24" fill="none" xmlns="http://www.w3.org/2000/svg">
<g clip-path="url(#clip0_1246_497)">
<path d="M24 12C24 5.37258 18.6274 0 12 0C5.37258 0 0 5.37258 0 12C0 18.6274 5.37258 24 12 24C18.6274 24 24 18.6274 24 12Z" fill="white"/>
<path d="M7.85938 9.19293C7.85938 8.66849 8.02775 8.13713 8.3645 7.59885C8.70125 7.06057 9.19259 6.61476 9.83853 6.26141C10.4845 5.90829 11.2381 5.73163 12.0992 5.73145C12.8996 5.73145 13.6062 5.87913 14.2191 6.17451C14.8321 6.46988 15.3055 6.87152 15.6395 7.37943C15.9679 7.86915 16.1424 8.44591 16.1405 9.03557C16.1405 9.50482 16.0451 9.91612 15.8545 10.2695C15.6758 10.6071 15.4469 10.9156 15.1755 11.1845C14.9133 11.4412 14.4427 11.8732 13.7637 12.4805C13.605 12.6224 13.4543 12.7731 13.3123 12.9318C13.2143 13.04 13.1295 13.1596 13.0598 13.288C13.0063 13.3911 12.9633 13.4993 12.9315 13.611C12.901 13.7187 12.8555 13.9077 12.7948 14.1782C12.6899 14.7524 12.3614 15.0395 11.8094 15.0394C11.676 15.0428 11.5433 15.0197 11.4189 14.9714C11.2945 14.923 11.1809 14.8504 11.0848 14.7578C10.8888 14.5703 10.7908 14.2916 10.7908 13.9215C10.7908 13.4578 10.8626 13.0562 11.0061 12.7168C11.143 12.3875 11.3364 12.0847 11.5775 11.822C11.882 11.5009 12.2026 11.1955 12.5381 10.907C12.8913 10.5979 13.1467 10.3646 13.3041 10.2072C13.4604 10.0513 13.5942 9.87429 13.7015 9.68137C13.8089 9.4891 13.8646 9.27224 13.863 9.05202C13.8662 8.8412 13.8239 8.63215 13.7389 8.43921C13.6538 8.24626 13.5281 8.07396 13.3703 7.9341C13.0418 7.6306 12.6181 7.47879 12.0992 7.47866C11.4919 7.47866 11.0448 7.63179 10.7578 7.93804C10.4708 8.24429 10.2278 8.69559 10.0289 9.29193C9.84122 9.91615 9.48516 10.2283 8.96075 10.2283C8.81473 10.2312 8.66971 10.2036 8.53495 10.1473C8.4002 10.0909 8.27868 10.0071 8.17817 9.90116C7.96564 9.68301 7.85938 9.44693 7.85938 9.19293ZM11.9005 18.2688C11.5761 18.2734 11.2616 18.1568 11.0186 17.9417C10.7673 17.7237 10.6417 17.4187 10.6418 17.0267C10.6383 16.8631 10.6688 16.7006 10.7316 16.5495C10.7943 16.3983 10.8878 16.2619 11.0061 16.1489C11.1236 16.0325 11.2634 15.9409 11.417 15.8797C11.5707 15.8185 11.7351 15.7889 11.9005 15.7926C12.0632 15.7903 12.2247 15.8206 12.3755 15.8818C12.5262 15.943 12.6632 16.0338 12.7782 16.1489C12.8933 16.2639 12.9841 16.4009 13.0452 16.5517C13.1063 16.7025 13.1366 16.864 13.1342 17.0267C13.1342 17.4132 13.01 17.7168 12.7615 17.9376C12.5269 18.1531 12.2191 18.2715 11.9005 18.2688Z" fill="black"/>
</g>
<defs>
<clipPath id="clip0_1246_497">
<rect width="24" height="24" fill="white"/>
</clipPath>
</defs>
</svg>
