<svg width="30" height="21" viewBox="0 0 30 21" fill="none" xmlns="http://www.w3.org/2000/svg">
<path d="M6.60956 16.8133C13.1338 19.4111 18.686 19.9171 24.9777 15.8735C24.9316 15.9441 23.687 17.8254 20.4142 18.7895C21.1056 19.7537 22.0506 20.8589 22.0506 20.8589C24.148 20.8589 26.1993 20.2475 27.9739 19.0717C29.3569 18.131 30.1405 16.5084 29.9791 14.8153C29.7025 11.9227 29.0341 9.10079 27.997 6.39648C26.6833 2.86907 23.5257 0.423351 19.861 0.0705819C19.5383 0.0470546 19.3079 0.0470548 19.1696 0.0470548L18.8008 0.423282C23.0187 1.64614 25.1161 3.55094 25.1621 3.62152C18.6856 0.282187 11.0336 0.235203 4.51092 3.48043C4.51092 3.48043 6.58527 1.38748 11.1718 0.282187L10.8952 0C10.4112 0 9.95024 0.0470544 9.46627 0.117566C6.07818 0.705469 3.24329 3.08061 2.02171 6.34936C0.961477 9.1713 0.27005 12.1343 0.0165378 15.1444C-0.121748 16.7435 0.615798 18.3191 1.90648 19.2363C3.61203 20.3886 5.64026 21 7.69155 21C7.69155 21 8.52126 19.8947 9.35105 18.9071C6.23952 17.9664 4.97189 16.0851 4.94883 16.0145L5.53441 16.3196C5.88447 16.5021 6.24335 16.6674 6.60956 16.8133ZM10.2269 14.7682C8.72873 14.7212 7.55327 13.4278 7.59938 11.8757C7.6455 10.4177 8.7979 9.24189 10.2269 9.19483C11.725 9.24189 12.9005 10.5353 12.8544 12.0874C12.7852 13.5454 11.6558 14.7212 10.2269 14.7682ZM19.6305 14.7682C18.1323 14.7212 16.9569 13.4278 17.003 11.8757C17.0491 10.4177 18.2015 9.24189 19.6305 9.19483C21.1286 9.24189 22.3041 10.5353 22.258 12.0874C22.2119 13.5454 21.0595 14.7212 19.6305 14.7682Z" fill="#5C5C5C"/>
</svg>
