<svg width="33" height="23" viewBox="0 0 33 23" fill="none" xmlns="http://www.w3.org/2000/svg">
<path d="M7.64078 18.0227C14.5313 20.7118 20.3952 21.2356 27.0401 17.05C26.9914 17.123 25.677 19.0704 22.2204 20.0684C22.9506 21.0664 23.9487 22.2105 23.9487 22.2105C26.1638 22.2105 28.3303 21.5776 30.2046 20.3605C31.6651 19.3868 32.4927 17.7072 32.3223 15.9546C32.0302 12.9605 31.3242 10.0394 30.2289 7.24014C28.8414 3.58885 25.5066 1.05724 21.6362 0.692079C21.2954 0.667726 21.052 0.667726 20.9059 0.667726L20.5165 1.05717C24.9711 2.32297 27.1862 4.29466 27.2349 4.36772C20.3947 0.911116 12.3132 0.862481 5.42432 4.22168C5.42432 4.22168 7.61512 2.05523 12.4592 0.911116L12.1671 0.619019C11.6559 0.619019 11.169 0.667725 10.6579 0.740714C7.07956 1.34926 4.08553 3.80781 2.79537 7.19136C1.67561 10.1124 0.945367 13.1795 0.677623 16.2953C0.531574 17.9506 1.31052 19.5815 2.67367 20.5309C4.47496 21.7236 6.61706 22.3565 8.78351 22.3565C8.78351 22.3565 9.65981 21.2124 10.5362 20.1901C7.24996 19.2164 5.91117 17.269 5.88682 17.196L6.50527 17.5118C6.87498 17.7007 7.25401 17.8718 7.64078 18.0227ZM11.4612 15.9059C9.87891 15.8572 8.63746 14.5184 8.68617 12.9118C8.73488 11.4026 9.95198 10.1855 11.4612 10.1368C13.0434 10.1855 14.2849 11.5243 14.2362 13.1309C14.1631 14.6401 12.9704 15.8572 11.4612 15.9059ZM21.3927 15.9059C19.8105 15.8572 18.569 14.5184 18.6177 12.9118C18.6664 11.4026 19.8835 10.1855 21.3927 10.1368C22.975 10.1855 24.2164 11.5243 24.1677 13.1309C24.1191 14.6401 22.9019 15.8572 21.3927 15.9059Z" fill="white"/>
</svg>
