<svg width="28" height="29" viewBox="0 0 28 29" fill="none" xmlns="http://www.w3.org/2000/svg">
<path d="M13.5625 0.9375C21 0.9375 27.125 7.0625 27.125 14.5C27.125 21.9922 21 28.0625 13.5625 28.0625C6.07031 28.0625 0 21.9922 0 14.5C0 7.0625 6.07031 0.9375 13.5625 0.9375ZM19.7969 10.1797C19.8516 10.0156 19.8516 9.85156 19.7969 9.63281C19.7969 9.52344 19.6875 9.35938 19.6328 9.30469C19.4688 9.14062 19.1953 9.14062 19.0859 9.14062C18.5938 9.14062 17.7734 9.41406 14 11C12.6875 11.5469 10.0625 12.6406 6.125 14.3906C5.46875 14.6641 5.14062 14.8828 5.08594 15.1562C5.03125 15.5938 5.74219 15.7578 6.5625 16.0312C7.27344 16.25 8.20312 16.5234 8.69531 16.5234C9.13281 16.5234 9.625 16.3594 10.1719 15.9766C13.8359 13.4609 15.75 12.2031 15.8594 12.2031C15.9688 12.2031 16.0781 12.1484 16.1328 12.2031C16.2422 12.3125 16.2422 12.4219 16.1875 12.4766C16.1328 12.75 12.6875 15.9219 12.4688 16.1406C11.7031 16.9062 10.8281 17.3984 12.1953 18.2734C13.3438 19.0391 14 19.5312 15.2031 20.2969C15.9688 20.7891 16.5703 21.3906 17.3359 21.3359C17.7188 21.2812 18.1016 20.9531 18.2656 19.9141C18.7578 17.5625 19.6328 12.3125 19.7969 10.1797Z" fill="white"/>
</svg>
