<svg width="43" height="37" viewBox="0 0 43 37" fill="none" xmlns="http://www.w3.org/2000/svg">
<path d="M42.3853 18.5625L24.3853 35.8125C24.104 36.0938 23.6353 36.0938 23.354 35.8125C23.0728 35.5312 23.0728 35.0625 23.354 34.7812L40.0415 18.75H1.4165C0.947754 18.75 0.666504 18.4688 0.666504 18C0.666504 17.625 0.947754 17.25 1.4165 17.25H40.0415L23.354 1.3125C23.0728 1.03125 23.0728 0.5625 23.354 0.28125C23.6353 0 24.104 0 24.3853 0.28125L42.3853 17.5312C42.5728 17.625 42.6665 17.8125 42.6665 18C42.6665 18.2812 42.5728 18.4688 42.3853 18.5625Z" fill="#594CE9"/>
</svg>
