<svg width="14" height="19" viewBox="0 0 14 19" fill="none" xmlns="http://www.w3.org/2000/svg">
<path d="M11.5 17.125C12.0977 17.125 12.625 16.6328 12.625 16V7H8.6875C7.73828 7 7 6.26172 7 5.3125V1.375H2.5C1.86719 1.375 1.375 1.90234 1.375 2.5V16C1.375 16.6328 1.86719 17.125 2.5 17.125H11.5ZM8.6875 5.875H12.5898C12.5547 5.80469 12.5195 5.69922 12.4492 5.62891L8.37109 1.55078C8.30078 1.48047 8.19531 1.44531 8.125 1.41016V5.3125C8.125 5.62891 8.37109 5.875 8.6875 5.875ZM2.5 0.25H7.98438C8.40625 0.25 8.86328 0.460938 9.17969 0.777344L13.2227 4.82031C13.5391 5.13672 13.75 5.59375 13.75 6.01562V16C13.75 17.2656 12.7305 18.25 11.5 18.25H2.5C1.23438 18.25 0.25 17.2656 0.25 16V2.5C0.25 1.26953 1.23438 0.25 2.5 0.25ZM4.1875 9.25H9.8125C10.0938 9.25 10.375 9.53125 10.375 9.8125C10.375 10.1289 10.0938 10.375 9.8125 10.375H4.1875C3.87109 10.375 3.625 10.1289 3.625 9.8125C3.625 9.53125 3.87109 9.25 4.1875 9.25ZM4.1875 11.5H9.8125C10.0938 11.5 10.375 11.7812 10.375 12.0625C10.375 12.3789 10.0938 12.625 9.8125 12.625H4.1875C3.87109 12.625 3.625 12.3789 3.625 12.0625C3.625 11.7812 3.87109 11.5 4.1875 11.5ZM4.1875 13.75H9.8125C10.0938 13.75 10.375 14.0312 10.375 14.3125C10.375 14.6289 10.0938 14.875 9.8125 14.875H4.1875C3.87109 14.875 3.625 14.6289 3.625 14.3125C3.625 14.0312 3.87109 13.75 4.1875 13.75Z" fill="#594CE9"/>
</svg>
