<svg width="48" height="48" viewBox="0 0 48 48" fill="none" xmlns="http://www.w3.org/2000/svg">
<rect width="48" height="48" rx="24" fill="#5C5C5C" fill-opacity="0.1"/>
<path d="M16.125 18.0625C16.125 17.7812 16.3711 17.5 16.6875 17.5H31.3125C31.5938 17.5 31.875 17.7812 31.875 18.0625C31.875 18.3789 31.5938 18.625 31.3125 18.625H16.6875C16.3711 18.625 16.125 18.3789 16.125 18.0625ZM16.125 23.6875C16.125 23.4062 16.3711 23.125 16.6875 23.125H31.3125C31.5938 23.125 31.875 23.4062 31.875 23.6875C31.875 24.0039 31.5938 24.25 31.3125 24.25H16.6875C16.3711 24.25 16.125 24.0039 16.125 23.6875ZM31.875 29.3125C31.875 29.6289 31.5938 29.875 31.3125 29.875H16.6875C16.3711 29.875 16.125 29.6289 16.125 29.3125C16.125 29.0312 16.3711 28.75 16.6875 28.75H31.3125C31.5938 28.75 31.875 29.0312 31.875 29.3125Z" fill="#594CE9"/>
</svg>
