<svg width="20" height="20" viewBox="0 0 20 20" fill="none" xmlns="http://www.w3.org/2000/svg">
<path d="M8.69922 11.5508C9.05078 11.9023 9.33203 12.3242 9.54297 12.7461C13.832 11.6914 15.9414 9.79297 16.9258 7.96484C17.9805 6.10156 17.9805 4.0625 17.6992 2.55078C16.1875 2.26953 14.1484 2.26953 12.2852 3.32422C10.457 4.30859 8.55859 6.41797 7.50391 10.707C7.92578 10.918 8.34766 11.1992 8.69922 11.5508ZM10 14.6797V17.8086L12.7422 16.4023C13.1289 16.2266 13.375 15.8398 13.375 15.418V12.6055C12.3906 13.0625 11.2305 13.4844 9.89453 13.8008C9.96484 14.082 10 14.3984 10 14.6797ZM14.5 15.418C14.5 16.2617 14.0078 17.0352 13.2344 17.4219L9.68359 19.2148C9.50781 19.2852 9.29688 19.2852 9.12109 19.1797C8.94531 19.0742 8.83984 18.8984 8.83984 18.6875V14.6797C8.83984 13.8008 8.52344 12.957 7.89062 12.3594C7.29297 11.7266 6.44922 11.375 5.57031 11.375H1.5625C1.35156 11.375 1.17578 11.3047 1.07031 11.1289C0.964844 10.9531 0.964844 10.7422 1.03516 10.5664L2.82812 7.01562C3.21484 6.24219 3.98828 5.75 4.83203 5.75H8.27734C11.0547 1.14453 15.3789 0.96875 17.9805 1.46094C18.4023 1.53125 18.7188 1.84766 18.7891 2.26953C19.2812 4.87109 19.1055 9.19531 14.5 11.9727V15.418ZM6.44922 10.3555C6.76562 9.01953 7.1875 7.85938 7.64453 6.875H4.83203C4.41016 6.875 4.02344 7.12109 3.84766 7.50781L2.44141 10.25H5.57031C5.85156 10.25 6.16797 10.2852 6.44922 10.3555ZM6.02734 17C6.80078 16.2266 6.80078 14.9609 6.02734 14.2227C5.25391 13.4492 4.02344 13.4492 3.25 14.2227C2.86328 14.6094 2.58203 15.2422 2.37109 16.0508C2.19531 16.7891 2.125 17.5273 2.125 18.125C2.72266 18.125 3.46094 18.0547 4.19922 17.8789C5.00781 17.668 5.64062 17.3867 6.02734 17ZM6.83594 17.7734C5.64062 19.0039 3.32031 19.2148 1.98438 19.25C1.42188 19.2852 0.964844 18.8281 1 18.2656C1.03516 16.9297 1.24609 14.6094 2.47656 13.4141C3.67188 12.2188 5.64062 12.2188 6.83594 13.4141C8.03125 14.6094 8.03125 16.5781 6.83594 17.7734ZM14.7812 6.3125C14.7812 5.85547 14.3945 5.46875 13.9375 5.46875C13.4453 5.46875 13.0938 5.85547 13.0938 6.3125C13.0938 6.80469 13.4453 7.15625 13.9375 7.15625C14.3945 7.15625 14.7812 6.80469 14.7812 6.3125ZM13.9375 4.34375C14.6406 4.34375 15.2734 4.73047 15.625 5.32812C15.9766 5.96094 15.9766 6.69922 15.625 7.29688C15.2734 7.92969 14.6406 8.28125 13.9375 8.28125C13.1992 8.28125 12.5664 7.92969 12.2148 7.29688C11.8633 6.69922 11.8633 5.96094 12.2148 5.32812C12.5664 4.73047 13.1992 4.34375 13.9375 4.34375Z" fill="white"/>
</svg>
