<svg width="161" height="26" viewBox="0 0 161 26" fill="none" xmlns="http://www.w3.org/2000/svg">
<path d="M36.1872 21.1958L40.7696 8.25186H43.7197L37.3394 25.1584H34.7907L28.4104 8.25186H31.5875L36.1698 21.1958H36.1872Z" fill="#594CE9"/>
<path d="M46.8445 17.6434C46.9405 21.2831 49.5764 23.0462 52.0552 23.0462C54.5341 23.0462 55.948 21.9115 56.6725 20.2532H59.6226C58.872 23.1422 56.1662 25.5599 52.0552 25.5599C46.7136 25.5599 43.7634 21.7282 43.7634 16.7357C43.7634 11.3591 47.342 7.97256 51.968 7.97256C57.1525 7.97256 60.1987 12.2756 59.8495 17.6522H46.8445V17.6434ZM46.8794 15.1908H56.8383C56.7423 12.7993 55.0141 10.4165 51.968 10.4165C49.4542 10.4165 47.1325 11.7955 46.8794 15.1908Z" fill="#594CE9"/>
<path d="M74.3384 2.37775H77.2012V25.1497H74.3384V22.601C73.2997 24.3903 71.5453 25.5512 68.8134 25.5512C64.9206 25.5512 61.5864 22.3741 61.5864 16.7531C61.5864 11.1322 64.9206 7.95508 68.8134 7.95508C71.5453 7.95508 73.3084 9.11593 74.3384 10.9052V2.37775ZM69.5291 10.4164C66.6052 10.4164 64.6937 12.712 64.6937 16.7619C64.6937 20.8118 66.6139 23.1073 69.5291 23.1073C72.0778 23.1073 74.4606 21.222 74.4606 16.7619C74.4606 12.3017 72.069 10.4164 69.5291 10.4164Z" fill="#594CE9"/>
<path d="M96.1677 16.7619C96.1677 22.8891 91.9869 25.5599 88.0592 25.5599C84.1315 25.5599 79.9507 22.8891 79.9507 16.7619C79.9507 10.6346 84.1315 7.96381 88.0592 7.96381C91.9869 7.96381 96.1677 10.6346 96.1677 16.7619ZM88.0592 23.0462C90.6689 23.0462 93.1128 21.0998 93.1128 16.7619C93.1128 12.4239 90.6602 10.4775 88.0592 10.4775C85.4582 10.4775 82.9968 12.1446 82.9968 16.7619C82.9968 21.3791 85.4495 23.0462 88.0592 23.0462Z" fill="#594CE9"/>
<path d="M107.349 11.2369C106.755 11.1409 106.223 11.1147 105.751 11.1147C103.115 11.1147 101.789 12.5636 101.789 16.2993V25.1584H98.9258V8.25186H101.719V11.202C102.565 9.28179 104.267 8.25186 106.493 8.15585C106.772 8.15585 106.999 8.15585 107.34 8.19077V11.2369H107.349Z" fill="#594CE9"/>
<path d="M121.052 8.25184H123.915V25.1497H121.052V22.601C120.013 24.3903 118.259 25.5512 115.527 25.5512C111.66 25.5512 108.361 22.3741 108.361 16.7531C108.361 11.1322 111.66 7.95508 115.527 7.95508C118.259 7.95508 120.022 9.11593 121.052 10.9052V8.23438V8.25184ZM116.242 10.4164C113.318 10.4164 111.407 12.712 111.407 16.7619C111.407 20.8118 113.327 23.1073 116.242 23.1073C118.791 23.1073 121.174 21.222 121.174 16.7619C121.174 12.3017 118.782 10.4164 116.242 10.4164Z" fill="#594CE9"/>
<path d="M127.72 25.1497V21.5362H131.334V25.1497H127.72Z" fill="#594CE9"/>
<path d="M142.462 2.37775H146.172L154.751 25.1584H151.295L149.506 20.227H139.041L137.278 25.1584H134.013L142.462 2.37775ZM140.009 17.4863H148.493L144.216 5.60719L140.009 17.4863Z" fill="#594CE9"/>
<path d="M160.32 25.1497H157.117V2.37775H160.32V25.1497Z" fill="#594CE9"/>
<path d="M18.6784 6.53238H0V21.9551H3.11598V9.63963H15.5624V21.9551H3.11598V25.0711H18.6784V6.53238Z" fill="#594CE9"/>
<path d="M6.15332 0.440094V3.55607H21.7157V19.1185H24.8317V0.440094H6.15332Z" fill="#594CE9"/>
</svg>
